<?xml version="1.0" encoding="iso-8859-1"?>
<!-- Generator: Adobe Illustrator 19.0.0, SVG Export Plug-In . SVG Version: 6.00 Build 0)  -->
<svg xmlns="http://www.w3.org/2000/svg" xmlns:xlink="http://www.w3.org/1999/xlink" version="1.1" id="Layer_1" x="0px" y="0px" viewBox="0 0 512 512" style="enable-background:new 0 0 512 512;" xml:space="preserve" width="512px" height="512px">
<g>
	<g>
		<polygon points="223,203.064 223,308.936 307.698,256   " fill="#00a0f0"/>
	</g>
</g>
<g>
	<g>
		<path d="M256,95c-88.775,0-161,72.224-161,161s72.225,161,161,161s161-72.224,161-161S344.775,95,256,95z M343.95,268.72l-128,80    c-2.428,1.517-5.188,2.28-7.95,2.28c-2.502,0-5.006-0.625-7.271-1.88c-4.77-2.643-7.729-7.667-7.729-13.12V176    c0-5.453,2.959-10.476,7.729-13.12c4.769-2.643,10.596-2.49,15.222,0.4l128,80c4.386,2.741,7.05,7.548,7.05,12.72    S348.336,265.979,343.95,268.72z" fill="#00a0f0"/>
	</g>
</g>
<g>
	<g>
		<path d="M432,0H80C35.888,0,0,35.888,0,80v352c0,44.112,35.888,80,80,80h352c44.112,0,80-35.888,80-80V80    C512,35.888,476.112,0,432,0z M256,447c-105.317,0-191-85.682-191-191S150.683,65,256,65s191,85.682,191,191S361.317,447,256,447z    " fill="#00a0f0"/>
	</g>
</g>
<g>
</g>
<g>
</g>
<g>
</g>
<g>
</g>
<g>
</g>
<g>
</g>
<g>
</g>
<g>
</g>
<g>
</g>
<g>
</g>
<g>
</g>
<g>
</g>
<g>
</g>
<g>
</g>
<g>
</g>
</svg>
